<svg xmlns="http://www.w3.org/2000/svg" fill="none" viewBox="454.767 54.17981072555205 214.731 160.37223974763407" style="max-height: 500px" width="214.731" height="160.37223974763407">
<path fill="white" d="M271.039 162.196H241.48V61.6415H271.039V78.3931C277.788 67.7452 288.296 60.5723 301.281 60.5723V93.1844H293.165C279.155 93.1844 271.039 98.2188 271.039 115.55V162.196Z"/>
<path fill="white" d="M85.1424 35.7148V138.407H123.842V162.198H55.584V35.7148H85.1424Z"/>
<path fill="white" d="M167.708 60.2227C182.06 60.2227 192.226 67.0837 197.437 75.905V61.6483H226.996V162.202H197.437V147.946C192.098 156.767 181.889 163.628 167.537 163.628C144.044 163.628 125.207 143.446 125.207 111.725C125.207 80.0038 144.044 60.2227 167.708 60.2227ZM176.336 87.0876C165.273 87.0876 155.278 95.7307 155.278 111.769C155.278 127.808 165.316 136.808 176.336 136.808C187.357 136.808 197.395 127.986 197.395 111.948C197.395 95.9089 187.57 87.0876 176.336 87.0876Z"/>
<path fill="white" d="M345.101 60.2227C359.453 60.2227 369.619 67.0837 374.83 75.905V61.6483H404.388V162.202H374.83V147.946C369.491 156.767 359.282 163.628 344.93 163.628C321.437 163.628 302.6 143.446 302.6 111.725C302.6 80.0038 321.437 60.2227 345.101 60.2227ZM353.772 87.0876C342.709 87.0876 332.713 95.7307 332.713 111.769C332.713 127.808 342.751 136.808 353.772 136.808C364.792 136.808 374.83 127.986 374.83 111.948C374.83 95.9089 365.006 87.0876 353.772 87.0876Z"/>
<path fill="white" d="M416.139 34.6461C416.139 25.2902 423.229 17.8945 433.737 17.8945C444.245 17.8945 451.165 25.2902 451.165 34.6461C451.165 44.0021 444.074 51.2195 433.737 51.2195C423.4 51.2195 416.139 43.8239 416.139 34.6461ZM418.872 61.6447H448.431V162.199H418.872V61.6447Z"/>
<path fill="url(#paint0_linear_1305_6635)" d="M617.203 163.667C645.523 163.667 667.649 143.841 667.649 111.942C667.649 79.998 645.907 60.1723 617.502 60.2169C610.198 60.2169 603.278 61.5534 597.085 64.0929C596.871 64.182 596.647 64.2823 596.422 64.3825C596.198 64.4827 595.974 64.583 595.76 64.6721C595.162 64.9394 594.564 65.2067 593.966 65.5186C593.667 65.6745 593.379 65.8304 593.091 65.9864C592.802 66.1423 592.514 66.2982 592.215 66.4542H592.172C591.746 66.6768 591.361 66.8994 590.977 67.122L590.976 67.1225C590.208 67.568 589.439 68.058 588.67 68.5481C588.478 68.6817 588.296 68.8042 588.115 68.9267C587.933 69.0492 587.752 69.1718 587.559 69.3055C586.919 69.751 586.278 70.2411 585.68 70.7312L585.167 71.1321C584.868 71.3549 584.612 71.5777 584.356 71.8004C584.014 72.0677 583.672 72.3796 583.331 72.6915L558.812 90.2005L558.855 61.6425H529.297V75.8992C524.085 66.8997 513.749 60.2169 499.567 60.2169C475.904 60.2169 457.066 80.0426 457.066 111.764C457.066 143.485 475.904 163.667 499.567 163.667C515.971 163.667 531.084 151.739 544.936 140.807C549.711 137.039 554.336 133.389 558.812 130.386L568.509 123.882L598.281 103.878C600.374 94.0319 606.439 88.6411 613.658 87.26C614.897 87.0372 616.178 86.9036 617.502 86.9036C618.698 86.9036 619.851 86.9927 621.005 87.2155C629.932 88.8193 637.535 96.7496 637.535 111.942C637.535 128.872 627.882 136.98 617.16 136.98C606.439 136.98 597.469 128.872 597.469 111.942C597.469 111.719 597.48 111.496 597.49 111.274C597.501 111.051 597.512 110.828 597.512 110.605L569.79 129.228C576.112 150.836 594.394 163.667 617.203 163.667ZM502.387 83.5176C514.048 83.5176 524.342 92.0271 525.709 107.576L525.751 113.858C525.367 120.139 523.53 125.308 520.754 129.273C516.397 135.555 509.648 138.896 502.387 138.896C490.042 138.896 478.894 128.872 478.894 111.006C478.894 93.1409 490.085 83.5176 502.387 83.5176ZM529.296 162.016V156.403L558.855 136.622V162.061C558.855 188.881 544.033 211.781 510.673 211.781C482.011 211.781 463.345 196.633 460.739 172.664H489.913C491.836 180.238 499.054 185.094 509.263 185.094C520.497 185.094 529.296 178.946 529.296 162.016Z" clip-rule="evenodd" fill-rule="evenodd"/>
<defs>
<linearGradient gradientUnits="userSpaceOnUse" y2="135.999" x2="667.649" y1="135.999" x1="457.066" id="paint0_linear_1305_6635">
<stop stop-color="#90DBF2"/>
<stop stop-color="#A34CD5" offset="1"/>
</linearGradient>
</defs>
</svg>